<?xml version="1.0" encoding="UTF-8"?>
<svg xmlns="http://www.w3.org/2000/svg" viewBox="0 0 1024 1024" width="1024" height="1024">
  <defs>
    <linearGradient id="grad-a" x1="0%" y1="0%" x2="100%" y2="100%">
      <stop offset="0%" stop-color="#1a73b8"/>
      <stop offset="100%" stop-color="#7727cf"/>
    </linearGradient>
    <linearGradient id="grad-b" x1="0%" y1="0%" x2="0%" y2="100%">
      <stop offset="0%" stop-color="#ffffff" stop-opacity="0.85"/>
      <stop offset="100%" stop-color="#ffffff" stop-opacity="0.25"/>
    </linearGradient>
  </defs>
  <rect x="0" y="0" width="1024" height="1024" rx="160" ry="160" fill="url(#grad-a)"/>
  <g transform="translate(128 128) scale(0.875)">
    <path d="M280 840c-110 0-200-90-200-200s90-200 200-200 200 90 200 200-90 200-200 200zm0-320c-66 0-120 54-120 120s54 120 120 120 120-54 120-120-54-120-120-120z" fill="url(#grad-b)"/>
    <path d="M640 240v400c0 110-90 200-200 200h-40v-96h40c57 0 104-47 104-104v-400c0-23 19-42 42-42h54c59 0 108-49 108-108 0-14-12-26-26-26h-90c-23 0-42 19-42 42v42h-90c-23 0-42 19-42 42v374c-24-12-52-18-80-18-110 0-200 90-200 200s90 200 200 200 200-90 200-200v-400c0-23 19-42 42-42h48c57 0 104-47 104-104 0-14-12-26-26-26h-90c-23 0-42 19-42 42z" fill="#ffffff" opacity="0.9"/>
    <path d="M160 520c160-160 320-160 480 0" fill="none" stroke="#f9f9ff" stroke-width="32" stroke-linecap="round" stroke-linejoin="round" opacity="0.85"/>
    <path d="M160 640c160-160 320-80 480 80" fill="none" stroke="#d8d4ff" stroke-width="28" stroke-linecap="round" stroke-linejoin="round" opacity="0.85"/>
  </g>
</svg>
